<svg xmlns="http://www.w3.org/2000/svg" xmlns:xlink="http://www.w3.org/1999/xlink" version="1.1" x="0px" y="0px" viewBox="0 0 32 40" enable-background="new 0 0 32 32" xml:space="preserve"><g><path
fill="#07c972" d="M28.7070313,27.2929688l-7.96875-7.96875C22.1503906,17.5995483,23,15.397522,23,13c0-5.5136719-4.4858398-10-10-10   S3,7.4863281,3,13s4.4858398,10,10,10c2.397644,0,4.5996094-0.8496704,6.3242188-2.2617188l7.96875,7.96875   C27.4882813,28.9023438,27.7441406,29,28,29s0.5117188-0.0976563,0.7070313-0.2929688   C29.0976563,28.3164063,29.0976563,27.6835938,28.7070313,27.2929688z M5,13c0-4.4111328,3.5888672-8,8-8s8,3.5888672,8,8   s-3.5888672,8-8,8S5,17.4111328,5,13z"/></g><text x="0" y="47" fill="#000000" font-size="5px" font-weight="bold" font-family="'Helvetica Neue', Helvetica, Arial-Unicode, Arial, Sans-serif">Created by yanuar rizki</text><text x="0" y="52" fill="#07c972" font-size="5px" font-weight="bold" font-family="'Helvetica Neue', Helvetica, Arial-Unicode, Arial, Sans-serif">from the Noun Project</text></svg>